<?xml version="1.0" encoding="utf-8"?>
<!-- Generator: Adobe Illustrator 23.0.1, SVG Export Plug-In . SVG Version: 6.00 Build 0)  -->
<svg version="1.1" id="Layer_1" xmlns="http://www.w3.org/2000/svg" xmlns:xlink="http://www.w3.org/1999/xlink" x="0px" y="0px"
	 viewBox="0 0 463.31 357.73" style="enable-background:new 0 0 463.31 357.73;" xml:space="preserve">
<style type="text/css">
	.st0{fill:#0B0B0B;}
</style>
<symbol  id="New_Symbol_10" viewBox="-37.24 -37.49 74.47 74.98">
	<g>
		<g>
			<g>
				<g>
					<polygon class="st0" points="23.1,12.54 23.1,12.54 23.1,12.54 					"/>
					<path class="st0" d="M26.77-4.07c-0.41-0.65-0.49-1.88,0.44-2.59c1.52-1.16,2.88-0.17,3.77-0.75c0.28-0.18,0.47-0.02,0.58,0.28
						c0.25,0.71,0.37,1.44,0.28,2.18c-0.04,0.36-0.11,0.72-0.25,1.05c-0.56,1.3-2.25,1.84-3.5,1.13c-0.16-0.09-0.31-0.2-0.45-0.32
						c-0.15-0.12-0.29-0.27-0.45-0.41c0.07-0.08,0.13-0.16,0.19-0.23c0.15-0.15,0.21-0.34,0.16-0.54c-0.14-0.65-0.02-1.28,0.5-1.61
						c0.5-0.33,2.03-0.77,2.95,0.47c0.44-0.82,0.13-1.52,0.06-1.56c-0.01-0.01-0.42,0.41-1.53,0.35c-0.61-0.03-1.43,0.13-1.95,0.48
						c-0.63,0.42-0.75,1.2-0.78,1.96C26.78-4.16,26.78-4.13,26.77-4.07z M29.72-3.99c0-0.45-0.37-0.82-0.83-0.82
						c-0.45,0-0.83,0.37-0.83,0.82c0,0.46,0.37,0.83,0.83,0.83C29.35-3.16,29.72-3.53,29.72-3.99z"/>
				</g>
			</g>
			<g>
				<g>
					<path class="st0" d="M19.84,2.26c0,0.05,0,0.1,0,0.14c-0.02,0.03-0.04,0.07-0.06,0.1C19.83,2.43,19.85,2.35,19.84,2.26z"/>
					<path class="st0" d="M21.59,7.85c-0.02,0-0.03,0-0.05,0c-0.01-0.02-0.02-0.04-0.03-0.06C21.53,7.81,21.56,7.83,21.59,7.85z"/>
				</g>
			</g>
			<g>
				<g>
					<path class="st0" d="M36.52-27.25c0.04,0.26,0.08,0.51,0.13,0.76c0.1,0.55,0.21,1.12,0.25,1.7c0.13,2.06-0.51,3.86-1.92,5.36
						l0.05,0.22c0.07,0.31,0.15,0.71,0.2,1.09c0.12,0.95-0.19,1.8-0.93,2.6c-0.02,0.02-0.05,0.05-0.06,0.07
						c-0.18,0.54-0.57,0.98-1.16,1.27c-0.34,0.17-0.71,0.3-1.08,0.39c0.45,0.19,0.9,0.41,1.36,0.69c0.05,0.03,0.08,0.04,0.08,0.04
						c1.5,0.23,2.68,1.39,2.94,2.88c0.01,0.03,0.01,0.07,0.01,0.1c0.01,0.06,0.01,0.13,0.02,0.15c0.59,0.91,0.7,1.95,0.32,3.06
						c-0.12,0.36-0.28,0.72-0.42,1.04c-0.11,0.25-0.21,0.49-0.31,0.74c-0.11,0.28-0.22,0.59-0.25,0.87
						c-0.07,0.78-0.19,1.81-0.47,2.84c-0.59,2.13-1.62,3.81-3.15,5.11c-1.4,1.19-2.89,1.71-4.9,2.01c0.27-0.43-0.09-0.62,0.1-1.1
						c0.08-0.19,0.1-0.38,0.1-0.55c3.44-1.18,6.05-4.31,6.48-8.08c0.01-0.11,0.02-0.22,0.03-0.33c0.02-0.31,0.05-0.63,0.15-0.94
						c0.12-0.36,0.28-0.7,0.45-1.03c0.07-0.14,0.13-0.27,0.2-0.41c0.06-0.12,0.12-0.25,0.18-0.37c0.12-0.26,0.26-0.55,0.37-0.84
						c0.1-0.25,0.2-0.82,0.07-1.18c-0.01,0-0.65,0.82-1.29,0.89c-0.62,0.06-0.77-0.38-0.77-0.38s1.26-0.43,1.61-1.4
						c-0.04-0.51-0.22-0.94-0.54-1.26c-0.4-0.4-0.81-0.53-1.24-0.6c-0.48-0.07-0.83,0.15-0.83,0.15s-0.27-1.46-3.3-1.47l-0.18,0
						c-0.89,0-1.75-0.25-2.7-0.78c-1.25-1.04-4.07-0.94-4.07-0.94c-0.79,0.13-1.53,0.33-2.25,0.62c-1.32,0.53-2.49,1.28-3.39,2.4
						c-0.49,0.6-0.85,1.27-1.1,2c-0.02,0.07-0.05,0.13-0.08,0.2c-0.01-0.71,0.14-1.39,0.44-2.02c0.62-1.28,1.65-2.11,2.93-2.66
						c1.11-0.48,2.28-0.64,3.49-0.58l0.25-0.28c0.12-0.14,0.25-0.18,0.34-0.2c0.49-0.12,1.01-0.17,1.59-0.17
						c0.22,0,1.58,0.31,2.95-0.39c0.12-0.06,0.29-0.14,0.49-0.14c0.1,0,0.2,0.02,0.3,0.06L28.17-16c0.33,0.12,0.97,0.39,0.97,0.39
						c3.94,0.87,4.5-2.11,4.5-2.11c-0.1,0.05-0.22,0.08-0.35,0.08c-0.15,0-0.3-0.05-0.43-0.15l-0.45-0.34l0.67-0.42
						c0.14-0.09,0.26-0.16,0.39-0.25c0.15-0.1,0.22-0.25,0.21-0.48c-0.02-0.61-0.73-1.23-1.4-1.23c-0.08,0-0.15,0.01-0.22,0.02
						c-0.27,0.06-0.43,0.15-0.52,0.31c-0.08,0.13-0.26,0.27-0.47,0.27l-0.18-0.01c-0.22-0.01-0.43-0.02-0.66-0.07l-0.05-0.01
						c-0.3-0.07-0.58-0.13-0.85-0.13c-0.1,0-0.19,0.01-0.28,0.03c-0.13,0.02-0.25,0.05-0.38,0.09l-0.6,0.14l-0.1-0.36
						c-0.15-0.53-0.4-1-0.75-1.46c-0.76-0.97-1.79-1.66-3.13-2.1c-0.99-0.32-2.06-0.49-3.18-0.49c-0.59,0-1.21,0.05-1.85,0.14
						c-2.4,0.34-4.08,1.65-4.98,3.88c-0.15,0.37-0.26,0.77-0.36,1.17c-0.06,0.22-0.11,0.43-0.17,0.64
						c-0.32,1.08-0.72,2.03-1.23,2.93c-0.94,1.64-2.1,2.8-3.56,3.57c-1.17,0.61-2.45,0.93-3.8,0.93c-0.56,0-1.15-0.05-1.74-0.16
						c-0.25-0.05-0.49-0.07-0.74-0.16c-1.28-0.49-1.44-0.72-1.44-0.72l0.62-0.04c0.1-0.01,0.33-0.03,0.55-0.06
						c0.25-0.03,0.5-0.06,0.61-0.07c0.43-0.02,0.84-0.04,1.25-0.08c1.7-0.17,3.24-0.69,4.59-1.55c1.81-1.15,2.92-2.57,3.39-4.34
						c0.29-1.09,0.7-2.18,1.23-3.23c0.31-0.63,0.71-1.35,1.29-1.98c0.83-0.89,1.88-1.49,3.32-1.9c0.39-0.11,0.76-0.23,1.08-0.33
						c0.04-0.01,0.08-0.03,0.12-0.14c0.18-0.47,0.22-0.92,0.13-1.38c-0.14-0.73-0.49-1.4-1.07-2.06c-0.46-0.53-1.05-0.93-1.63-1.32
						c-0.32-0.21-0.62-0.44-0.89-0.67c-0.34-0.29-0.52-0.68-0.5-1.1c0.02-0.35,0.04-0.92,0.63-0.92c0.13,0,0.27,0.03,0.5,0.1
						c0.1,0.03,0.19,0.07,0.29,0.11l0.51,0.22c0.28,0.12,0.57,0.24,0.85,0.36c0.57,0.23,1.12,0.35,1.65,0.35
						c0.28,0,0.56-0.03,0.83-0.1c0.77-0.19,1.48-0.61,1.64-1.22c0,0,0.54-2.35-3.35-2.31c-0.31,0-0.63,0.08-0.97,0.16l-0.18,0.04
						c-0.37,0.09-0.7,0.13-1.02,0.13c-0.3,0-0.57-0.05-0.83-0.1l-0.12-0.02c-0.78-0.14-1.61-0.21-2.7-0.21
						c-0.49,0-23.17,0.02-23.17,0.02c-2.05,0-3.98,0.29-5.77,0.75c-7.41,1.94-12.69,6.09-16.13,12.42c-1.25,2.3-2.1,4.79-2.54,7.43
						c0.02-0.04,2.47-3.75,2.47-3.75s-2.71,4.89-2.82,7.81c-0.04,1.02,0.06,2.07,0.19,3.12c0.08-0.26,0.16-0.52,0.25-0.77
						c1.26-3.6,3.18-6.96,5.85-10.3c0.06-0.08,0.12-0.17,0.14-0.26c0.41-1.27,0.97-2.48,1.66-3.6c-1.57,0.32-3.8,2.52-3.8,2.52
						l0.29-0.56c1.75-3.37,5.86-5.42,6.67-5.71c2.36-2.09,5.22-3.61,8.51-4.52c0.19-0.05,0.37-0.09,0.56-0.14l1.61-0.38l-1.03,0.99
						c-0.12,0.11-0.24,0.16-0.32,0.19c-2.33,0.83-4.46,2-6.33,3.48c-2.45,1.93-4.21,4.29-5.23,7.01c-0.12,0.33-0.11,0.5-0.05,0.65
						c0.06,0.15,0.09,0.3,0.13,0.45c0.03,0.11,0.05,0.18,0.07,0.25c0.55,1.78,1.37,3.17,2.51,4.25c1.07,1.01,2.44,1.75,4.19,2.27
						c1.67,0.49,3.43,0.72,5.13,0.93l0.74,0.1c0.96,0.12,1.94,0.27,2.88,0.42l0.49,0.08c-0.64-0.82-1.19-1.7-1.64-2.62
						c-0.12-0.04-3.57-0.81-3.99-0.9c-5.49-1.17-5.86-4.66-5.86-4.66s2.37,3.14,8.07,3.31l0.2,0c0.23,0,0.46-0.01,0.69-0.02
						c-1.58-8.26,1.48-11.13,1.46-11.03c-0.69,2.64-0.87,5.04-0.53,7.34c0.43,2.99,1.75,5.56,3.91,7.65
						C-6.19-10.06-4.34-8.87-2-7.83c2.03,0.9,4.17,1.45,6.19,1.94L4.57-5.8C6.05-5.45,7.54-5.09,9-4.66
						c2.26,0.66,4.22,1.75,5.83,3.24c0.25,0.23,0.53,0.48,0.76,0.79c1.14,1.48,2.44,2.6,3.93,3.44c0.21-0.94,0.75-1.83,1.63-2.37
						c-0.93,1.59-1.4,3.21-0.96,4.71c0.42,1.34,1.11,2.01,1.85,3.31c0.88,1.69,0.97,4.09,0.99,4.11c0.16,0.17,0.27,0.33,0.44,0.49
						c0.2,0.2,0.39,0.4,0.59,0.61c0.59,0.61,1.03,1.38,1.21,2.3c0.19,0.96-0.25,1.47-0.25,1.47c0.16,0.59,0.38,1.17,0.42,1.76
						c0.08,1.1-0.25,2.11-0.41,2.11c-0.07,0-1.41-1.52-2.14-1.81c-0.17,1.04-0.44,2.1-0.86,3.42c-0.31,0.99-0.4,1.81-0.27,2.57
						c0.09,0.57,0.78,1.36,0.78,1.36l0.32,0.38l-0.44,0.23c-0.07,0.04-0.64,0.17-0.83,0.17c-0.55,0-1.01-0.2-1.34-0.58
						c-0.07,0.45-0.08,0.91-0.03,1.37c0.07,0.8,0.39,1.53,0.66,2.08c0.08,0.17,0.18,0.39,0.25,0.62c0.08,0.29,0.04,0.56-0.11,0.78
						c-0.16,0.21-0.41,0.33-0.71,0.33c-0.26,0-0.49-0.04-0.69-0.12c-0.9-0.34-1.61-0.92-2.11-1.72c-0.16,0.19-0.31,0.4-0.4,0.64
						c-0.12,0.33-0.28,0.64-0.43,0.92c-0.12,0.24-0.29,0.36-0.5,0.36c-0.15,0-0.26-0.06-0.34-0.14c-0.26,0.69-0.69,1.28-1.27,1.74
						c-0.04,0.03-0.08,0.05-0.13,0.09l-0.79,0.48c0,0,0.15-1.01,0.15-1.01c-2.02,1.31-4.25,2.26-6.63,2.83
						c-0.19,0.04-0.38,0.08-0.57,0.12c-0.58,0.11-2.25,0.77-2.55,0.86c-0.07,0.03,0.06-0.48,0.06-0.48
						c-0.24,0.01-1.61,0.28-1.66,0.28l-0.11-0.41c0,0-1.83,0.83-2.18,0.83c0,0-0.37-0.68-0.42-0.69c-1.66-0.1-3.25-0.35-4.73-0.71
						c-2.59-0.65-4.76-1.61-6.62-2.95c-1.63-1.17-2.8-2.47-3.65-3.94c-0.43-0.73-1.06-1.9-1.17-2.65c0.46,0.18,1.45,0.2,1.63,0.2
						c0.83,0,2.08-0.49,2.98-1.15c0.97-0.71,1.66-1.59,2.05-2.63c0.55-1.49,0.3-2.87-0.75-4.11c-0.33,1.1-0.77,1.93-1.39,2.6
						c-0.43,0.48-0.94,0.83-1.51,1.06c-0.09,0.04-0.18,0.06-0.27,0.07l-0.15,0.02c0,0,0.72-1.63,0.81-2.31
						c0.19-1.47-0.01-3.52-1.43-3.92c-0.43-0.12-0.84-0.3-1.26-0.44c-0.76-0.26-1.54-0.54-2.32-0.82c-2.17-0.81-4.1-1.72-5.89-2.77
						c0.55,0.84,0.04,1.7-0.11,1.87c-0.06-0.88-2.8-3.82-3.33-4.27c-1.94-1.64-3.41-3.17-4.62-4.78c-0.94-1.26-1.77-2.58-2.46-3.94
						c-0.07,0.72-0.09,1.44-0.06,2.18c0.01,0.33-1.81-2.77-1.5-5.89c0-0.01,0-0.05-0.03-0.14c-0.59-1.84-0.97-3.68-1.12-5.45
						c-0.58-6.51,1.04-12.54,4.83-17.76c4.03-5.55,9.49-9.29,16.24-10.85c1.79-0.42,3.77-0.81,6.62-0.81c0,0,11.19,0,11.9,0
						l16.24,0.03c0,0,1.91,0,2.99,0.59c0.93,0.5,1.45,1.01,1.83,1.88c0.58,1.36,0.08,3.09-1.16,4c-0.74,0.54-1.62,0.81-2.68,0.81
						c-0.1,0-0.2,0-0.3,0c-0.11,0-0.21-0.01-0.32-0.02c0.83,0.84,1.4,1.84,1.69,2.97c0.13,0.51,0.17,1.03,0.13,1.56l0,0.03
						l0.25,0.01c0.57,0.02,1.14,0.05,1.7,0.09c-0.19-0.24-0.33-0.52-0.43-0.83c-0.28-0.88-0.4-1.61-0.36-2.3
						c0.05-1.22,0.51-2.35,1.37-3.38c0.66-0.79,1.48-1.43,2.48-1.94c-0.1-0.42-0.07-0.86,0.08-1.28c0.12-0.32,0.33-0.59,0.64-0.76
						c0.34-0.19,0.71-0.31,1.1-0.31c0.14,0,0.28-0.03,0.44,0.01c0.61-1.36,2.11-1.18,2.11-1.18c1.23,0.28,1.65,1.44,1.53,2.38
						c-0.02,0.11-0.04,0.23-0.06,0.34l0.07,0.02c0.32,0.08,0.66,0.16,1,0.28c2.27,0.79,3.73,2.34,4.35,4.6
						C37.4-28.82,37.19-27.95,36.52-27.25z M19.56,8.52C16.09-1.16,7.97-2.46,7.15-2.46c0,0-2.64-0.2-3.82,0.08
						c0.04-0.17,0.61-0.83,1.93-1C4.74-3.49,4.22-3.6,3.7-3.67c-1.38-0.2-3.02-0.47-4.64-0.96c-0.07-0.02-0.15-0.03-0.22-0.03
						l-0.04,0c-1.51,0.1-3.02,0.21-4.53,0.32c-0.92,0.07-1.76,0.1-2.57,0.1c-0.97,0-1.87-0.05-2.76-0.14
						c-2-0.21-3.97-0.69-5.87-1.42c-5.46-2.33-8.37-5.44-8.37-5.44s5.59,3.76,8.56,4.52c6.48,1.65,10.59,0.28,11.33,0.1
						C-5.87-6.89-6.3-7.17-6.72-7.48c-0.34-0.25-0.72-0.45-1.15-0.61C-8.2-8.21-8.54-8.33-8.9-8.44c-1.5-0.47-3.07-0.75-4.6-1.02
						c0,0-0.62-0.11-0.9-0.16c-1.48-0.27-3.05-0.55-4.61-0.9c-1.54-0.34-2.87-0.84-4.08-1.52c-2.23-1.26-3.54-3.17-3.92-5.66
						c-0.65,1.22-1.12,2.41-1.16,3.64c-0.25,6.4,4.22,8.76,5.53,9.62c1.33,0.88,2.91,1.6,4.95,2.3c2.81,0.95,5.73,1.57,8.47,2.09
						c1.04,0.2,2.07,0.4,3.11,0.59l0.25,0.05c1.22,0.23,2.44,0.46,3.67,0.7c2.14,0.41,3.85,0.96,5.38,1.71
						c2.43,1.2,4.27,2.47,5.79,4.02c1.22,0.04,2.32,0.15,3.36,0.35c2.79,0.53,5.43,1.58,7.87,3.13C20.03,9.81,19.79,9.16,19.56,8.52
						z M22.23,17.41c0.34,0.16,0.73,0.27,1.1,0.38c0,0,0.23,0.07,0.33,0.1c-0.02-0.1-0.04-0.2-0.07-0.3
						c-0.57-1.76-1.58-3.32-2.98-4.65c-0.9-0.85-2.01-1.56-3.6-2.28c-1.33-0.6-2.77-1.1-4.46-1.55c0.49,0.14,0.97,0.31,1.45,0.51
						c2.49,1.03,4.76,2.6,6.96,4.79c0.03,0.03,0.06,0.06,0.08,0.1l0.67,0.93l-1.09-0.31c-0.12-0.04-0.21-0.09-0.28-0.14
						c-1.86-1.29-3.55-2.32-5.18-3.17c-1.02-0.53-2.32-1.11-3.62-1.45c-0.03-0.01-0.16-0.01-0.16-0.02v0c0,0.49,0.24,0.97,0.6,1.43
						c0.27,0.34,0.78,0.76,1.15,1.04c1.13,0.86,2.36,1.55,3.4,2.09c-0.38-0.49-0.78-0.88-1.32-1.15c0,0,0.63-0.66,1.44-0.37
						c0.93,0.33,1.36,0.66,1.96,1.16c0.34,0.28,0.67,0.57,1,0.86c0.39,0.34,0.87,0.76,1.34,1.14
						C21.31,16.84,21.76,17.18,22.23,17.41z M17.75,27.52c0.31,1.18,0.68,2.03,1.17,2.75c0.23,0.33,0.46,0.57,0.73,0.74
						c-0.01-0.03-0.05-0.12-0.05-0.12c-0.72-1.76-1.07-3.62-1.08-5.7c0-0.31-0.04-0.61-0.07-0.89c-0.19-1.64-1.12-2.98-1.69-3.58
						C16.9,23.31,17.22,25.49,17.75,27.52z M-14.62,13.11c0.62,0.59,1.15,1.09,1.54,1.54c0.67,0.77,1.35,2.62,1.37,2.66
						c2.78-2.44-1.05-6.14-2.34-7.34c-0.02-0.02,2.64-0.61,4.74,1.9c7.31,8.69-0.85,14.96-3.68,15.65c-0.19,0.05-1.18,0.35-1.76,0.2
						c5.06,7.35,13.08,5.52,13.08,5.52s-0.62,1.18-2.62,1.22c-0.07,0-0.13,0-0.2,0c-0.1,0-0.21,0-0.31-0.01
						c0.06,0.02,0.11,0.04,0.17,0.06c0.85,0.26,2.76,1.08,5.42,0.06c0.52-0.19,1.58-0.82,1.58-0.82l-0.14,0.51l-0.09,0.23
						l-0.02,0.07c-0.04,0.11-0.07,0.2-0.12,0.28c-0.04,0.08-0.09,0.17-0.14,0.26c0.08-0.03,0.15-0.06,0.23-0.1
						c0.5-0.24,0.99-0.3,1.41-0.33c0.66-0.04,1.24-0.1,1.77-0.18c0.76-0.11,1.33-0.5,1.69-1.17c0.11-0.2,0.24-0.39,0.33-0.56
						c0.41-0.72,1.28-0.79,1.28-0.79l-0.27,0.63l-0.26,0.9c0.13-0.11,0.28-0.22,0.38-0.37c0.48-0.76,1.61-0.84,1.61-0.84l-0.2,1.18
						c0.08-0.05,3.8-1.41,4-2.91c0-0.08,0-1.16,0-1.16s0.75,0.74,0.8,1.74c0.17-0.15,2.05-1.44,1.64-3.21
						c-0.35-1.15-0.38-2.4-0.39-4.05c0-0.39,0.01-0.78,0.01-1.17v-0.17c0-0.75-0.02-1.6-0.03-2.44c-0.03-2.3-0.54-3.13-0.54-3.13
						l0.13,0.05c0.13,0.04,0.24,0.09,0.34,0.14c0.47,0.25,0.9,0.6,1.32,1.1c0.81,0.97,1.32,2.07,1.74,3.11
						c0.3,0.75,0.63,1.54,0.96,2.34c1.23-3.03-1.66-5.62-1.66-5.62s2.23,1.2,2.85,2.41c0,0,0.53-1.48-1.86-2.54
						c-1.13-0.5-2.3-0.99-3.46-1.41l-0.68-0.25c-0.28-0.1-0.57-0.25-0.86-0.44c-0.15-0.1-0.3-0.22-0.45-0.35
						c0.19,0.77,0.49,1.41,0.85,2.02c0.56,0.96,0.82,2.18,0.97,2.81l0.12,0.56c0,0-0.71-0.88-1.19-1.15
						c0.02,0.1,0.04,0.19,0.07,0.28c0.57,1.65,0.44,2.97,0.44,2.97s-0.87-0.62-0.89-0.65c0.3,1.87-0.06,2.91-0.06,2.91
						s-0.69-1.97-1.24-2.36c-0.26,0.68-0.72,1.31-0.97,1.55c-0.77,0.75-1.21,2.63-1.21,2.63s-0.78-0.48-0.79-0.51
						c0.06,0.14,0.08,0.65-0.14,1.66c0,0-0.75-0.77-0.76-0.84c0,0-0.57,1.78-0.71,1.78c-0.05,0-0.27-0.76-0.33-0.91
						c-0.01,0.08-0.59,1.53-0.6,1.19c-0.01-0.29-0.33-0.93-0.86-0.66c-2.08,1.04-4.33,1.78-6.69,1.97
						c-5.84,0.46-7.26-1.15-7.54-1.51c0,0,2.72,0.69,6.28,0.16c2.31-0.34,4.52-1.07,6.57-2.19c1.45-0.79,2.64-1.68,3.61-2.69
						c-0.23-1.2-7.56-0.83-7.56-0.83s1.84-1.62,7.06-0.81c0.63,0.1,1.12-0.15,1.57-0.5c0.17-0.14,0.26-0.37,0.22-0.5
						c-0.03-0.1-0.22-0.12-0.32-0.12c-0.06,0-0.13,0.01-0.2,0.02c-0.16,0.02-0.24,0.03-0.29,0.03c-0.25,0,5.55-4.14,0.5-11.23
						C8.54,9.14,5.45,7.43,3.81,6.86c5.29,6.15,0.28,10.36-1.03,11.32c-1.15,0.84-2.53,1.48-4.34,2.02
						c-0.22,0.06-0.44,0.12-0.67,0.19l-1.66,0.46l0.95-1.03c0.02-0.03,0.07-0.09,0.16-0.12c0.06-0.02,0.12-0.05,0.17-0.07
						c1.16-0.45,2.1-0.96,2.9-1.55c1.33-0.99,7.7-5.15,0.3-12.49C0.34,5.33-0.34,4.95-0.46,4.91c1.99,3.35,0.31,5.93,0.31,5.93
						S-1.06,7.49-1.6,6.57c-0.63-1.11-1.48-2.01-2.35-2.32c1.38,2.7,0.01,4.23,0.01,4.23c1.37-6.11-14-7.54-17.62-10.26
						c-0.09,0.37-0.17,0.86-0.17,1.26C-21.8,6.28-17.31,10.55-14.62,13.11z M-25.26,11.11c-0.24-0.96-0.44-1.88-0.6-3.79
						c-0.02-0.26-0.07-1.28-0.07-1.28s1.28,5.58,7.13,6.19c-1.19-1.78-2.15-3.66-2.87-5.58c-0.65-1.73-1.05-3.39-1.24-5.08
						c-0.13-1.24-0.14-2.45-0.01-3.6c-0.07-0.05-0.14-0.1-0.21-0.15c-1.3,0.73-1.71,2.9-1.62,4.61c0.08,1.39,0.94,4.57,0.81,4.3
						c-0.84-1.74-2.29-4.2-2.38-6.55c-0.06-1.65,0.44-3.25,1.42-4.71c-0.14,0.03-0.32,0.09-0.53,0.19l-0.02,0.01l-0.07,0.07
						c-0.1,0.09-0.21,0.19-0.29,0.3C-31.19,3.24-25.64,10.4-25.26,11.11z M-28.82,5.44c-0.07-0.52-0.13-1.03-0.17-1.55
						c-0.15-1.7-0.08-3.21,0.2-4.61c0.25-1.22,0.64-2.16,1.23-2.94c0.41-0.54,0.87-0.94,1.39-1.23c-0.61-0.73-1.14-1.51-1.58-2.31
						c-0.23,0.3-0.39,0.59-0.49,0.89l-0.42,1.15c0,0-1.75-3.04-0.72-6.69C-29.37-11.83-38.01-0.48-28.82,5.44z M-29.59-13.33
						c0.05-0.05,0.06-0.11,0.06-0.19c0.04-0.83,0.08-1.53,0.14-2.23c0,0,0-0.01,0-0.01c-2.63,3.21-4.3,6.86-4.96,10.89
						C-33.73-7.76-31.17-11.58-29.59-13.33z M33.82-32.62c-0.9-0.5-2.25-0.62-3.41-0.62c-0.29,0-0.6,0.02-0.93,0.06
						c-0.06,0.01-0.12,0.01-0.18,0.01c-0.25,0-0.56,0.01-0.71-0.19c-0.22-0.28-0.34-0.95,1.07-0.94c0.07,0,0.79,0.1,1.09-0.43
						c0.24-0.42,0.08-1.13-0.1-1.33c-0.71-0.78-1.96,0.38-1.96,0.38c-0.27,0-0.95-0.22-1.68,0.51c-0.73,0.73,0.14,2.31-0.16,2.44
						c-0.28,0.11-0.36,0.15-0.62,0.28c-1.54,0.8-3.59,2.57-2.6,5.02c0.81-2.02,3.71-3.04,5.08-3.27c3.89-0.64,6.69,0.44,6.75,0.47
						C35.52-31.05,34.46-32.27,33.82-32.62z M35.13-24.9c-0.07-0.69-0.21-1.36-0.38-2.1c-0.22-0.97-0.8-1.6-1.74-1.88
						c-0.4-0.12-0.84-0.17-1.38-0.17c-0.92,0-1.85,0.12-2.85,0.37c-0.99,0.25-1.64,0.5-2.16,0.84c-0.65,0.43-1.03,0.94-1.19,1.58
						c-0.11,0.48-0.06,0.97,0,1.34c0,0.02,0.01,0.04,0.01,0.04c0,0,0.02,0.01,0.05,0.02c1.81,0.73,3.07,1.84,3.83,3.4
						c0.04,0.09,0.08,0.11,0.16,0.12c0.23,0.02,0.43,0.04,0.61,0.04c0.53,0,0.97-0.1,1.36-0.31c0.27-0.14,0.55-0.21,0.83-0.21
						c0.28,0,0.57,0.07,0.86,0.21c0.21,0.1,0.4,0.22,0.58,0.36c0.11,0.08,0.21,0.17,0.31,0.26C34.9-22.13,35.27-23.44,35.13-24.9z"
						/>
				</g>
			</g>
			<g>
				<g>
					<path class="st0" d="M23.79,0.52c0.81,0.51,0.9,1.32,0.9,1.32c0.29,1.27-0.92,3.36-1.31,4.42c-0.32,0.87-0.6,2.36-0.37,3.27
						c0.97-0.29,2.18-1.19,2.89-1.96c0.76-0.83,1.38-2.04,1.28-3.15c-0.04-0.45-0.25-1.03-0.58-1.6c-0.14-0.25-0.07-0.78,0.39-0.78
						c0.35,0,0.51,0.05,0.77,0.41c0.93,1.23,1.06,2.35-0.16,3.98c-0.88,1.18-1.83,2.01-3,2.88c-0.33,0.25-0.92,0.53-1.33,0.61
						c-0.45,0.09-0.72-0.13-0.88-0.57c-0.05-0.16-0.09-0.32-0.12-0.49c-0.26-1.47,0.08-2.8,0.8-4.12c0.96-1.75,0.95-2.53,0.08-4.38
						C23.15,0.37,23.34,0.24,23.79,0.52z"/>
				</g>
			</g>
		</g>
	</g>
</symbol>
<use xlink:href="#New_Symbol_10"  width="74.47" height="74.98" x="-37.24" y="-37.49" transform="matrix(4.7709 0 0 -4.7709 231.6527 178.8672)" style="overflow:visible;"/>
</svg>
